<!-- Generated by IcoMoon.io -->
<svg version="1.1" xmlns="http://www.w3.org/2000/svg" width="39" height="32" viewBox="0 0 39 32">
<path d="M20.089 16.391c0.949-0.821 1.709-1.837 2.231-2.978s0.791-2.381 0.791-3.636c0-2.357-0.937-4.618-2.604-6.285s-3.928-2.603-6.285-2.603-4.618 0.937-6.285 2.603c-1.667 1.667-2.604 3.928-2.604 6.285-0 1.255 0.27 2.495 0.791 3.636s1.282 2.157 2.231 2.978c-2.489 1.127-4.6 2.947-6.082 5.242s-2.271 4.969-2.274 7.7c0 0.471 0.187 0.924 0.521 1.257s0.786 0.521 1.257 0.521c0.471 0 0.924-0.187 1.257-0.521s0.521-0.786 0.521-1.257c0-2.829 1.124-5.542 3.124-7.542s4.713-3.124 7.542-3.124 5.542 1.124 7.542 3.124c2.001 2 3.124 4.713 3.124 7.542 0 0.471 0.187 0.924 0.521 1.257s0.786 0.521 1.257 0.521c0.471 0 0.924-0.187 1.257-0.521s0.521-0.786 0.521-1.257c-0.003-2.732-0.792-5.405-2.274-7.7s-3.593-4.115-6.082-5.242zM14.222 15.111c-1.055 0-2.086-0.313-2.963-0.899s-1.561-1.419-1.964-2.394c-0.404-0.975-0.509-2.047-0.303-3.081s0.714-1.985 1.46-2.731c0.746-0.746 1.696-1.254 2.731-1.46s2.107-0.1 3.081 0.303c0.975 0.404 1.808 1.087 2.393 1.964s0.899 1.908 0.899 2.963c0 1.415-0.562 2.771-1.562 3.771s-2.357 1.562-3.771 1.562zM31.538 15.68c1.138-1.281 1.881-2.864 2.14-4.558s0.023-3.426-0.679-4.989c-0.703-1.563-1.842-2.889-3.281-3.82s-3.116-1.425-4.829-1.425c-0.471 0-0.924 0.187-1.257 0.521s-0.521 0.786-0.521 1.257c0 0.471 0.187 0.924 0.521 1.257s0.786 0.521 1.257 0.521c1.414 0 2.771 0.562 3.771 1.562s1.562 2.357 1.562 3.771c-0.003 0.934-0.25 1.851-0.718 2.659s-1.14 1.479-1.949 1.946c-0.264 0.152-0.484 0.369-0.639 0.631s-0.242 0.559-0.25 0.863c-0.007 0.302 0.062 0.601 0.202 0.868s0.346 0.495 0.598 0.661l0.693 0.462 0.231 0.124c2.143 1.016 3.951 2.624 5.211 4.633s1.919 4.337 1.9 6.709c0 0.471 0.187 0.924 0.521 1.257s0.786 0.521 1.257 0.521c0.471 0 0.924-0.187 1.257-0.521s0.521-0.786 0.521-1.257c0.015-2.728-0.669-5.415-1.985-7.804s-3.222-4.403-5.535-5.849z"></path>
</svg>
